<svg width="117" height="117" viewBox="0 0 117 117" fill="none" xmlns="http://www.w3.org/2000/svg">
<path d="M53.1818 10.6364L63.8182 10.6364L63.8182 15.9545L69.1364 15.9545L69.1364 21.2727L74.4546 21.2727L74.4546 26.5909L79.7727 26.5909L79.7727 31.9091L85.0909 31.9091L85.0909 37.2273L90.4091 37.2273L90.4091 42.5454L95.7273 42.5454L95.7273 47.8636L101.045 47.8636L101.045 53.1818L106.364 53.1818L106.364 63.8182L101.045 63.8182L101.045 69.1364L95.7273 69.1364L95.7273 74.4545L90.4091 74.4545L90.4091 79.7727L85.0909 79.7727L85.0909 85.0909L79.7727 85.0909L79.7727 90.4091L74.4546 90.4091L74.4546 95.7273L69.1364 95.7273L69.1364 101.045L63.8182 101.045L63.8182 106.364L53.1818 106.364L53.1818 79.7727L10.6364 79.7727L10.6364 37.2273L53.1818 37.2273L53.1818 10.6364ZM63.8182 31.9091L63.8182 47.8636L21.2727 47.8636L21.2727 69.1364L63.8182 69.1364L63.8182 85.0909L69.1364 85.0909L69.1364 79.7727L74.4546 79.7727L74.4546 74.4545L79.7727 74.4545L79.7727 69.1364L85.0909 69.1364L85.0909 63.8182L90.4091 63.8182L90.4091 53.1818L85.0909 53.1818L85.0909 47.8636L79.7727 47.8636L79.7727 42.5454L74.4546 42.5454L74.4546 37.2273L69.1364 37.2273L69.1364 31.9091L63.8182 31.9091Z" fill="#FF8383"/>
</svg>
