<svg width="1027" height="289" viewBox="0 0 1027 289" fill="none" xmlns="http://www.w3.org/2000/svg">
<path d="M997.164 288.595L959.126 188.996H996.072L1026.28 267.395V288.595H997.164ZM895.426 288.595V0.997498H999.348C1004.32 0.997498 1008.81 3.66414 1012.82 8.99742C1016.94 14.3307 1020.22 21.5306 1022.64 30.5972C1025.19 39.6638 1026.47 49.5304 1026.47 60.1969V134.596C1026.47 145.263 1025.19 155.129 1022.64 164.196C1020.22 173.262 1016.94 180.462 1012.82 185.796C1008.81 191.129 1004.32 193.796 999.348 193.796L923.636 194.196V288.595H895.426ZM923.636 131.396H997.892V62.9969H923.636V131.396Z" fill="black"/>
<path d="M756.446 288.595V0.597473H877.476V62.9968H785.02V113.396H859.458V175.796H785.02V226.195H877.476V288.595H756.446Z" fill="black"/>
<path d="M601.457 288.595V0.597473H629.667V113.396H707.017V0.597473H735.227V288.595H707.017V175.796H629.667V288.595H601.457Z" fill="black"/>
<path d="M477.129 288.595C472.275 288.595 467.786 285.928 463.661 280.595C459.535 275.261 456.259 268.061 453.833 258.995C451.406 249.928 450.193 240.062 450.193 229.395V202.595H478.403V226.195H552.659V175.796H477.129C472.275 175.796 467.786 173.129 463.661 167.796C459.535 162.463 456.259 155.396 453.833 146.596C451.406 137.529 450.193 127.53 450.193 116.596V59.7969C450.193 48.8636 451.406 38.9971 453.833 30.1972C456.259 21.1306 459.535 13.9307 463.661 8.59738C467.786 3.26411 472.275 0.597473 477.129 0.597473H554.297C559.15 0.597473 563.579 3.26411 567.583 8.59738C571.708 13.9307 574.984 21.1306 577.411 30.1972C579.959 38.9971 581.233 48.8636 581.233 59.7969V86.5966H552.659V62.9968H478.403V113.396H554.297C559.15 113.396 563.579 116.063 567.583 121.396C571.708 126.73 574.984 133.929 577.411 142.996C579.959 151.796 581.233 161.663 581.233 172.596V229.395C581.233 240.062 579.959 249.928 577.411 258.995C574.984 268.061 571.708 275.261 567.583 280.595C563.579 285.928 559.15 288.595 554.297 288.595H477.129Z" fill="black"/>
<path d="M326.41 288.595C321.557 288.595 317.067 285.928 312.942 280.595C308.817 275.261 305.541 268.061 303.114 258.995C300.687 249.928 299.474 240.062 299.474 229.395V0.597473H327.684V226.195H401.94V0.597473H430.514V229.395C430.514 240.062 429.24 249.928 426.692 258.995C424.265 268.061 420.989 275.261 416.864 280.595C412.86 285.928 408.431 288.595 403.578 288.595H326.41Z" fill="black"/>
<path d="M251.39 288.595L213.352 188.996H250.298L280.51 267.395V288.595H251.39ZM149.652 288.595V0.997498H253.574C258.549 0.997498 263.038 3.66414 267.042 8.99742C271.168 14.3307 274.444 21.5306 276.87 30.5972C279.418 39.6638 280.692 49.5304 280.692 60.1969V134.596C280.692 145.263 279.418 155.129 276.87 164.196C274.444 173.262 271.168 180.462 267.042 185.796C263.038 191.129 258.549 193.796 253.574 193.796L177.862 194.196V288.595H149.652ZM177.862 131.396H252.118V62.9969H177.862V131.396Z" fill="black"/>
<path d="M26.936 288.595C21.9613 288.595 17.4113 285.928 13.286 280.595C9.282 275.261 6.06667 268.195 3.64 259.395C1.21333 250.328 0 240.328 0 229.395V59.7969C0 48.8636 1.21333 38.9971 3.64 30.1972C6.06667 21.1306 9.282 13.9307 13.286 8.59738C17.4113 3.26411 21.9613 0.597473 26.936 0.597473H130.676V62.9968H34.216C32.2747 62.9968 30.758 64.0635 29.666 66.1968C28.6953 68.3301 28.21 71.6634 28.21 76.1967V212.995C28.21 217.262 28.6953 220.595 29.666 222.995C30.758 225.129 32.2747 226.195 34.216 226.195H130.676V288.595H26.936Z" fill="black"/>
</svg>
