<svg width="1027" height="284" viewBox="0 0 1027 284" fill="none" xmlns="http://www.w3.org/2000/svg">
<path d="M802.705 283.638V0H1026.81V61.4548H855.614V111.091H993.445V172.546H855.614V222.183H1026.81V283.638H802.705Z" fill="black"/>
<path d="M574.806 283.638C565.595 283.638 557.17 281.011 549.531 275.759C542.118 270.506 536.164 263.547 531.671 254.88C527.177 245.95 524.931 236.102 524.931 225.334V58.3033C524.931 47.5355 527.177 37.8183 531.671 29.1516C536.164 20.2223 542.118 13.1314 549.531 7.87881C557.17 2.62627 565.595 0 574.806 0H766.894V61.4548H588.286C584.691 61.4548 581.883 62.5053 579.861 64.6063C578.064 66.7073 577.165 69.9902 577.165 74.4548V209.183C577.165 213.385 578.064 216.668 579.861 219.031C581.883 221.132 584.691 222.183 588.286 222.183H766.894V283.638H574.806Z" fill="black"/>
<path d="M243.897 283.638V58.3033C243.897 47.5355 246.143 37.8183 250.637 29.1516C255.13 20.2223 261.196 13.1314 268.834 7.87881C276.473 2.62627 284.786 0 293.772 0H436.322C445.533 0 453.845 2.62627 461.259 7.87881C468.898 13.1314 474.964 20.2223 479.457 29.1516C484.175 37.8183 486.534 47.5355 486.534 58.3033V283.638H433.626V192.243H296.131V283.638H243.897ZM296.131 130.788H433.626V61.4548H296.131V130.788Z" fill="black"/>
<path d="M0.364014 283.638V0H224.467V61.4548H53.2725V111.091H191.104V172.546H53.2725V283.638H0.364014Z" fill="black"/>
</svg>
